<svg width="16" height="16" viewBox="0 0 16 16" fill="none" xmlns="http://www.w3.org/2000/svg">
<g clip-path="url(#clip0_3085_146439)">
<path d="M8.00016 4.16659C8.27631 4.16659 8.50016 4.39044 8.50016 4.66659V8.66659C8.50016 8.94273 8.27631 9.16659 8.00016 9.16659C7.72402 9.16659 7.50016 8.94273 7.50016 8.66659V4.66659C7.50016 4.39044 7.72402 4.16659 8.00016 4.16659Z" fill="#EE6666"/>
<path d="M8.00016 11.3333C8.36835 11.3333 8.66683 11.0348 8.66683 10.6666C8.66683 10.2984 8.36835 9.99992 8.00016 9.99992C7.63197 9.99992 7.3335 10.2984 7.3335 10.6666C7.3335 11.0348 7.63197 11.3333 8.00016 11.3333Z" fill="#EE6666"/>
<path fill-rule="evenodd" clip-rule="evenodd" d="M0.833496 7.99992C0.833496 4.04188 4.04212 0.833252 8.00016 0.833252C11.9582 0.833252 15.1668 4.04188 15.1668 7.99992C15.1668 11.958 11.9582 15.1666 8.00016 15.1666C4.04212 15.1666 0.833496 11.958 0.833496 7.99992ZM8.00016 1.83325C4.59441 1.83325 1.8335 4.59416 1.8335 7.99992C1.8335 11.4057 4.59441 14.1666 8.00016 14.1666C11.4059 14.1666 14.1668 11.4057 14.1668 7.99992C14.1668 4.59416 11.4059 1.83325 8.00016 1.83325Z" fill="#EE6666"/>
</g>
<defs>
<clipPath id="clip0_3085_146439">
<rect width="16" height="16" fill="white"/>
</clipPath>
</defs>
</svg>
